# xmcd CD database file
#
# Track frame offsets:
#	150
#	13247
#	36027
#	53055
#	76032
#	95782
#	116497
#	139180
#	161037
#	176512
#
# Disc length: 2656 seconds
#
# Revision: 0
# Processed by: cddbd v1.5PL3 Copyright (c) Steve Scherf et al.
# Submitted via: CDex 1.50beta10
#
DISCID=7c0a5e0a
DTITLE=EPO - HARMONY
DYEAR=1985
DGENRE=JPop
TTITLE0=パフォーマンス (Overture)
TTITLE1=夕闇のストラット
TTITLE2=ヴィクテム
TTITLE3=疑似恋人たちの夜
TTITLE4=TIBETAN DANCE
TTITLE5=私について
TTITLE6=上海エトランゼ
TTITLE7=じょうずな不良のしかた
TTITLE8=Just one little kiss
TTITLE9=ハーモニー
EXTD=YEAR: 1985
EXTT0=
EXTT1=
EXTT2=
EXTT3=
EXTT4=
EXTT5=
EXTT6=
EXTT7=
EXTT8=
EXTT9=
PLAYORDER=
